<svg xmlns="http://www.w3.org/2000/svg" width="42.063" height="22.67" viewBox="0 0 42.063 22.67"><g transform="translate(-26.347)"><path d="M125.533,71.94a4.81,4.81,0,0,0-4.943,4.981,4.752,4.752,0,0,0,4.943,4.886,4.805,4.805,0,0,0,4.794-4.9A4.893,4.893,0,0,0,125.533,71.94Z" transform="translate(-68.386 -65.587)" fill="#f88d2b"/><path d="M117.9,70.35l-.2.261v.019a6.48,6.48,0,0,0-1.23,3.146v.038a6.363,6.363,0,0,0-.034.667,6.441,6.441,0,0,0,.176,1.487,6.92,6.92,0,0,0,.314.977,6.491,6.491,0,1,0,3.909-8.6h0A6.491,6.491,0,0,0,117.9,70.35Z" transform="translate(-65.82 -63.153)" fill="none"/><path d="M116.46,83.283v0Z" transform="translate(-65.838 -72.52)" fill="#3cb4e5"/><path d="M95.714,66.549c-.019-.479-.038-.8-.05-.962A11.342,11.342,0,0,0,78.191,57.2h0a11.342,11.342,0,0,0-2.82,2.625L72.3,63.553l-.766.923-2.414,2.954-.889,1.092-2.495,3.066-.034.054a3.407,3.407,0,0,1-2.916,1.533h-.073c-2.541,0-3.774-1.15-3.774-3.449V63.48L54,69.68v.073c0,4.951,3.522,8.277,8.775,8.277h0a9.538,9.538,0,0,0,2.579-.383,7.664,7.664,0,0,0,3.318-1.916,9.475,9.475,0,0,0,.694-.724c.13-.153.257-.314.383-.475l3.736-4.748h0l5.687-6.959v-.019l.2-.261a6.491,6.491,0,0,1,2.912-2h0a6.48,6.48,0,1,1-3.909,8.6h0a6.92,6.92,0,0,1-.314-.977,6.441,6.441,0,0,1-.176-1.487,3.4,3.4,0,0,1,.031-.563l-3.993,4.916A11.144,11.144,0,0,0,75.1,73.182h0a11.319,11.319,0,0,0,15.768,2.809V78.03h4.851v-10.2C95.722,67.457,95.725,66.825,95.714,66.549Z" transform="translate(-27.312 -55.36)" fill="#003057"/><path d="M109.3,78.054v-.038a6.48,6.48,0,0,1,1.23-3.146l-5.683,6.947h0c.065.238.149.467.23.7s.138.356.211.536l4.008-4.9C109.3,78.123,109.3,78.089,109.3,78.054Z" transform="translate(-58.677 -67.394)" fill="#3cb4e5"/><path d="M87.458,28.09l-4.008,4.9h0l4.008-4.9Z" transform="translate(-36.837 -17.326)" fill="#3cb4e5"/><path d="M69.29,0H64.32V13.488l4.97-6.062V9.051h0Z" transform="translate(-25.037)" fill="#003057"/><path d="M85.538,80.8v.05a5.522,5.522,0,0,1-.828,2.682L87.2,80.492l.889-1.092,2.414-2.954V74.74Z" transform="translate(-46.255 -67.314)" fill="#3cb4e5"/><path d="M53.789,66.707a.513.513,0,1,0-.073-.717.513.513,0,0,0,.073.717Z" transform="translate(-27.066 -61.798)" fill="#003057"/><path d="M56.374,55.857a.257.257,0,0,0,.36-.038.253.253,0,0,0-.383-.322A.261.261,0,0,0,56.374,55.857Z" transform="translate(-28.725 -55.405)" fill="#f88d2b"/><path d="M60.24,79.913a.249.249,0,1,0-.034-.345A.253.253,0,0,0,60.24,79.913Z" transform="translate(-31.108 -70.233)" fill="#f88d2b"/><path d="M62.372,77.176a.318.318,0,0,0,.445-.046.342.342,0,1,0-.429.046Z" transform="translate(-32.389 -68.455)" fill="#003057"/><path d="M59.2,56.25a.433.433,0,1,0-.159-.291A.433.433,0,0,0,59.2,56.25Z" transform="translate(-30.421 -55.434)" fill="#3cb4e5"/><path d="M65.792,74.019a.218.218,0,1,0-.031-.3.215.215,0,0,0,.031.3Z" transform="translate(-34.537 -66.631)" fill="#3cb4e5"/><path d="M53.823,87.7a.314.314,0,0,0,.444-.046.318.318,0,0,0-.027-.445.314.314,0,0,0-.383.49Z" transform="translate(-27.17 -74.981)" fill="#f88d2b"/><path d="M62.037,73.3a.517.517,0,1,0-.073-.728.517.517,0,0,0,.073.728Z" transform="translate(-32.154 -65.861)" fill="#f88d2b"/><path d="M57.7,77.045a.517.517,0,1,0-.073-.724A.517.517,0,0,0,57.7,77.045Z" transform="translate(-29.477 -68.171)" fill="#3cb4e5"/><path d="M55.082,80.034a1.035,1.035,0,1,0,.378.7A1.038,1.038,0,0,0,55.082,80.034Z" transform="translate(-26.935 -70.435)" fill="#003057"/><path d="M63.492,67.923a.7.7,0,1,0-.1-.989A.7.7,0,0,0,63.492,67.923Z" transform="translate(-33.007 -62.34)" fill="#003057"/><path d="M60.04,64.218a.92.92,0,1,0-1.3.134A.92.92,0,0,0,60.04,64.218Z" transform="translate(-30.03 -59.899)" fill="#f88d2b"/><path d="M62.065,57.961a1.092,1.092,0,1,0-.157-1.533A1.092,1.092,0,0,0,62.065,57.961Z" transform="translate(-32.04 -55.769)" fill="#003057"/><path d="M55.955,70.441a1.092,1.092,0,1,0-.157-1.533A1.092,1.092,0,0,0,55.955,70.441Z" transform="translate(-28.271 -63.467)" fill="#3cb4e5"/><path d="M53.543,59.543a1.15,1.15,0,1,0-.427-.781A1.15,1.15,0,0,0,53.543,59.543Z" transform="translate(-26.763 -56.676)" fill="#003057"/><path d="M53.7,75.7a.513.513,0,1,0-.073-.717A.514.514,0,0,0,53.7,75.7Z" transform="translate(-27.013 -67.344)" fill="#003057"/><path d="M65.824,62.869a.467.467,0,1,0,.2.447A.467.467,0,0,0,65.824,62.869Z" transform="translate(-34.155 -59.942)" fill="#3cb4e5"/></g></svg>