<?xml version="1.0" encoding="utf-8"?>
<!-- Generator: Adobe Illustrator 24.0.0, SVG Export Plug-In . SVG Version: 6.00 Build 0)  -->
<svg version="1.1" id="Capa_1" xmlns="http://www.w3.org/2000/svg" xmlns:xlink="http://www.w3.org/1999/xlink" x="0px" y="0px"
	 viewBox="0 0 512 512" style="enable-background:new 0 0 512 512;" xml:space="preserve">
<style type="text/css">
	.st0{fill:#FFFFFF;}
	.st1{fill:#F2F2F2;}
	.st2{opacity:7.000000e-02;clip-path:url(#SVGID_2_);enable-background:new    ;}
	.st3{fill:#B7B7B7;}
</style>
<circle class="st0" cx="256" cy="256" r="256"/>
<circle class="st1" cx="256" cy="256" r="220"/>
<g>
	<defs>
		<circle id="SVGID_1_" cx="256" cy="256" r="220"/>
	</defs>
	<clipPath id="SVGID_2_">
		<use xlink:href="#SVGID_1_"  style="overflow:visible;"/>
	</clipPath>
	<path class="st2" d="M506.1,310.9L317.9,107.3L220,349l-96.7,48.6l110.9,113.5c7.2,0.6,14.5,0.9,21.8,0.9
		C378.5,512,480.9,425.9,506.1,310.9z"/>
</g>
<path class="st3" d="M196.1,356.2l-62.7,34.2c-3.7,2-7,4.5-10.1,7.2c36.6,30.8,83.8,49.4,135.4,49.4c51.2,0,98.1-18.3,134.6-48.7
	c-3.4-2.8-7-5.4-11.1-7.4L315,357.3c-8.7-4.3-14.2-13.2-14.2-22.9V308c1.9-2.1,4-4.9,6.4-8.2c9.2-12.9,16.1-27.2,20.9-42.1
	c8.6-2.7,15-10.6,15-20.1v-28.1c0-6.2-2.8-11.7-7-15.6v-40.7c0,0,8.4-63.3-77.4-63.3s-77.4,63.3-77.4,63.3V194
	c-4.3,3.9-7,9.4-7,15.6v28.1c0,7.4,3.9,13.9,9.7,17.7c7,30.6,25.4,52.6,25.4,52.6v25.7C209.5,343.1,204.4,351.7,196.1,356.2z"/>
</svg>
