<?xml version="1.0" encoding="utf-8"?>
<!-- Generator: Adobe Illustrator 24.0.1, SVG Export Plug-In . SVG Version: 6.00 Build 0)  -->
<svg version="1.1" id="Layer_1" xmlns="http://www.w3.org/2000/svg" xmlns:xlink="http://www.w3.org/1999/xlink" x="0px" y="0px"
	 viewBox="0 0 64 64" style="enable-background:new 0 0 64 64;" xml:space="preserve">
<style type="text/css">
	.st0{fill:#BCC8D3;}
</style>
<path id="ic_public_24px" class="st0" d="M32,3.1C16.3,3.1,3.5,15.9,3.5,31.6S16.3,60.1,32,60.1c15.7,0,28.5-12.8,28.5-28.5
	c0,0,0,0,0,0C60.5,15.9,47.7,3.1,32,3.1z M29.2,54.2c-11.4-1.4-20-11.1-19.9-22.6c0-1.7,0.2-3.4,0.6-5.1l13.7,13.7V43
	c0,3.1,2.6,5.7,5.7,5.7V54.2z M48.8,47c-0.7-2.4-2.9-4-5.4-4h-2.8v-8.5c0-1.6-1.3-2.8-2.8-2.8H20.6v-5.7h5.7c1.6,0,2.8-1.3,2.8-2.8
	v-5.7h5.7c3.1,0,5.7-2.6,5.7-5.7v-1.2c11.7,4.7,17.3,18,12.6,29.6C52.1,42.7,50.6,45,48.8,47L48.8,47z"/>
</svg>
