<?xml version="1.0" encoding="utf-8"?>
<!-- Generator: Adobe Illustrator 24.0.1, SVG Export Plug-In . SVG Version: 6.00 Build 0)  -->
<svg version="1.1" id="Layer_1" xmlns="http://www.w3.org/2000/svg" xmlns:xlink="http://www.w3.org/1999/xlink" x="0px" y="0px"
	 viewBox="0 0 19 19" style="enable-background:new 0 0 19 19;" xml:space="preserve">
<style type="text/css">
	.st0{fill:#ADBCC9;}
</style>
<path class="st0" d="M17.8,1.2c-0.2-0.2-0.5-0.2-0.7,0l-6.6,6.6L9.3,6.7c-0.4-0.4-1-0.4-1.4,0L6.6,8l0,0c-1.6,1.2-3.3,2.2-5.2,2.8
	c-0.2,0.1-0.3,0.2-0.3,0.5c0,0.2,0,1.6,2.5,4.1c2.4,2.4,3.9,2.5,4.1,2.5h0c0.2,0,0.4-0.1,0.5-0.3c0.6-1.9,1.6-3.6,2.8-5.2l0,0
	l1.3-1.3c0.4-0.4,0.4-1,0-1.4c0,0,0,0,0,0l-1.1-1.1l6.6-6.6C18,1.7,18,1.4,17.8,1.2C17.8,1.2,17.8,1.2,17.8,1.2L17.8,1.2z M7.4,16.9
	c-0.2-0.1-0.4-0.1-0.5-0.2c-0.2-0.1-0.4-0.2-0.6-0.4l0.6-0.6c0.2-0.2,0.2-0.5,0-0.7c-0.2-0.2-0.5-0.2-0.7,0l-0.7,0.7
	c-0.2-0.2-0.5-0.4-0.7-0.6l1.7-1.7c0.2-0.2,0.2-0.5,0-0.7c-0.2-0.2-0.5-0.2-0.7,0L4,14.3c-0.2-0.3-0.5-0.5-0.6-0.7l0.7-0.7
	c0.2-0.2,0.2-0.5,0-0.7c-0.2-0.2-0.5-0.2-0.7,0l-0.6,0.6c-0.1-0.2-0.3-0.4-0.4-0.6c-0.1-0.2-0.2-0.3-0.2-0.5C3.9,11,5.5,10.2,7,9.1
	l3,3C8.8,13.5,8,15.1,7.4,16.9L7.4,16.9z M10.6,11.3L7.7,8.4l1-1l2.9,2.9L10.6,11.3z"/>
<path class="st0" d="M-10.3-8.3h0.7v0.7c0,0.3,0.2,0.5,0.5,0.5s0.5-0.2,0.5-0.5v-0.7H-8c0.3,0,0.5-0.2,0.5-0.5S-7.7-9.3-8-9.3h-0.7
	V-10c0-0.3-0.2-0.5-0.5-0.5s-0.5,0.2-0.5,0.5v0.7h-0.7c-0.3,0-0.5,0.2-0.5,0.5S-10.6-8.3-10.3-8.3z"/>
<path class="st0" d="M30.5,21.5h-0.7v-0.7c0-0.3-0.2-0.5-0.5-0.5s-0.5,0.2-0.5,0.5v0.7h-0.7c-0.3,0-0.5,0.2-0.5,0.5s0.2,0.5,0.5,0.5
	h0.7v0.7c0,0.3,0.2,0.5,0.5,0.5s0.5-0.2,0.5-0.5v-0.7h0.7c0.3,0,0.5-0.2,0.5-0.5S30.7,21.5,30.5,21.5z"/>
<path class="st0" d="M29.7,3.3c0.1,0.3,0.4,0.4,0.6,0.3s0.4-0.4,0.3-0.6c-0.1-0.3-0.4-0.4-0.6-0.3c0,0-0.1,0-0.1,0
	C29.7,2.8,29.6,3,29.7,3.3z"/>
<path class="st0" d="M9.5-9.8c0.2,0.2,0.5,0.1,0.7-0.1c0.2-0.2,0.1-0.5-0.1-0.7c-0.2-0.2-0.5-0.1-0.7,0.1c0,0,0,0.1-0.1,0.1
	C9.3-10.2,9.3-9.9,9.5-9.8z"/>
<path class="st0" d="M17,29.7c-0.1-0.3-0.3-0.4-0.6-0.4s-0.4,0.3-0.4,0.6c0.1,0.3,0.3,0.4,0.6,0.4c0,0,0.1,0,0.1,0
	C16.9,30.1,17,29.9,17,29.7z"/>
</svg>
