<?xml version="1.0" encoding="utf-8"?>
<!-- Generator: Adobe Illustrator 24.0.1, SVG Export Plug-In . SVG Version: 6.00 Build 0)  -->
<svg version="1.1" id="Layer_1" xmlns="http://www.w3.org/2000/svg" xmlns:xlink="http://www.w3.org/1999/xlink" x="0px" y="0px"
	 viewBox="0 0 64 64" style="enable-background:new 0 0 64 64;" xml:space="preserve">
<style type="text/css">
	.st0{fill:#BCC8D3;}
</style>
<path id="ic_cloud_queue_24px" class="st0" d="M51.8,25C49.7,14.4,39.4,7.4,28.7,9.6c-5.9,1.2-10.9,4.9-13.6,10.2
	c-8.6,1-14.8,8.8-13.8,17.5c0.9,7.9,7.6,13.9,15.5,13.9h34.1c7.2,0,13.1-5.9,13.1-13.1C64,31.2,58.7,25.5,51.8,25z M50.9,45.9H16.8
	c-5.8,0-10.5-4.7-10.5-10.5S11,24.9,16.8,24.9h1.9c2.2-7.7,10.2-12.1,17.8-9.9C42.7,16.8,47,22.4,47,28.9v1.3h3.9
	c4.4,0,7.9,3.5,7.9,7.9S55.3,45.9,50.9,45.9L50.9,45.9z"/>
</svg>
