<svg height="512pt" viewBox="-49 0 512 512.001" width="512pt" xmlns="http://www.w3.org/2000/svg"><path d="m363.738281 134.15625v250.464844c0 3.152344-2.550781 5.703125-5.703125 5.703125h-301.242187c-3.15625 0-5.707031-2.550781-5.707031-5.703125v-250.464844c0-6.894531 5.589843-12.480469 12.472656-12.480469h287.699218c6.882813 0 12.480469 5.585938 12.480469 12.480469zm0 0" fill="#fff"/><path d="m363.738281 134.15625v49.65625h-312.652343v-49.65625c0-6.894531 5.585937-12.480469 12.472656-12.480469h287.699218c6.882813 0 12.480469 5.585938 12.480469 12.480469zm0 0" fill="#e4eaf8"/><path d="m363.734375 168.800781h-312.648437v-34.644531c0-6.890625 5.585937-12.480469 12.480468-12.480469h287.6875c6.894532 0 12.480469 5.585938 12.480469 12.480469zm0 0" fill="#abffdb"/><path d="m398.285156 82.253906h-29.851562c-4.992188 0-9.042969-4.046875-9.042969-9.039062v-29.851563c0-4.992187 4.050781-9.039062 9.042969-9.039062h29.851562c4.992188 0 9.039063 4.046875 9.039063 9.039062v29.851563c0 4.992187-4.046875 9.039062-9.039063 9.039062zm0 0" fill="#ffc850"/><path d="m16.542969 82.253906h29.847656c4.992187 0 9.042969-4.046875 9.042969-9.039062v-29.851563c0-4.992187-4.050782-9.039062-9.042969-9.039062h-29.847656c-4.996094 0-9.042969 4.046875-9.042969 9.039062v29.851563c0 4.992187 4.046875 9.039062 9.042969 9.039062zm0 0" fill="#ffc850"/><path d="m183.445312 16.539062v29.851563c0 4.992187 4.050782 9.042969 9.042969 9.042969h29.847657c4.996093 0 9.042968-4.050782 9.042968-9.042969v-29.851563c0-4.992187-4.046875-9.039062-9.042968-9.039062h-29.847657c-4.992187 0-9.042969 4.046875-9.042969 9.039062zm0 0" fill="#abffdb"/><path d="m16.542969 429.746094h29.847656c4.992187 0 9.042969 4.046875 9.042969 9.039062v29.851563c0 4.992187-4.050782 9.039062-9.042969 9.039062h-29.847656c-4.996094 0-9.042969-4.046875-9.042969-9.039062v-29.851563c0-4.992187 4.046875-9.039062 9.042969-9.039062zm0 0" fill="#ffc850"/><path d="m398.285156 429.746094h-29.851562c-4.992188 0-9.042969 4.046875-9.042969 9.039062v29.851563c0 4.992187 4.050781 9.039062 9.042969 9.039062h29.851562c4.992188 0 9.039063-4.046875 9.039063-9.039062v-29.851563c0-4.992187-4.046875-9.039062-9.039063-9.039062zm0 0" fill="#ffc850"/><path d="m231.378906 495.460938v-29.851563c0-4.992187-4.046875-9.042969-9.042968-9.042969h-29.847657c-4.992187 0-9.042969 4.050782-9.042969 9.042969v29.851563c0 4.992187 4.050782 9.039062 9.042969 9.039062h29.847657c4.996093 0 9.042968-4.046875 9.042968-9.039062zm0 0" fill="#abffdb"/><path d="m243.101562 382.824219h-184.515624v-35.183594c0-4.140625-3.359376-7.5-7.5-7.5-4.140626 0-7.5 3.359375-7.5 7.5v36.980469c0 7.28125 5.921874 13.203125 13.203124 13.203125h44.789063v47.128906c0 .691406-.566406 1.257813-1.257813 1.257813h-37.386718v-7.425782c0-9.121094-7.421875-16.542968-16.542969-16.542968h-29.847656c-9.121094 0-16.542969 7.421874-16.542969 16.542968v29.851563c0 9.121093 7.421875 16.542969 16.542969 16.542969h29.847656c9.121094 0 16.542969-7.421876 16.542969-16.542969v-7.425781h37.386718c8.964844 0 16.257813-7.292969 16.257813-16.257813v-47.128906h83.335937v51.242187h-7.425781c-9.121093 0-16.542969 7.421875-16.542969 16.542969v29.851563c0 9.117187 7.421876 16.539062 16.542969 16.539062h29.847657c9.121093 0 16.542968-7.417969 16.542968-16.539062v-29.851563c0-9.121094-7.417968-16.542969-16.542968-16.542969h-7.421876v-51.242187h28.1875c4.144532 0 7.5-3.355469 7.5-7.5 0-4.140625-3.355468-7.5-7.5-7.5zm-195.167968 85.8125c0 .847656-.691406 1.542969-1.542969 1.542969h-29.847656c-.851563 0-1.542969-.691407-1.542969-1.542969v-29.851563c0-.847656.691406-1.542968 1.542969-1.542968h29.847656c.851563 0 1.542969.691406 1.542969 1.542968zm175.945312-3.027344v29.851563c0 .847656-.691406 1.539062-1.542968 1.539062h-29.847657c-.851562 0-1.542969-.691406-1.542969-1.539062v-29.851563c0-.851563.691407-1.542969 1.542969-1.542969h29.847657c.851562 0 1.542968.691406 1.542968 1.542969zm0 0" fill="#474d54"/><path d="m93.019531 153.609375h151.015625c4.140625 0 7.5-3.355469 7.5-7.5 0-4.140625-3.359375-7.5-7.5-7.5h-151.015625c-4.140625 0-7.5 3.359375-7.5 7.5 0 4.144531 3.359375 7.5 7.5 7.5zm0 0" fill="#fff"/><path d="m275.765625 153.148438c4.140625 0 7.5-3.359376 7.5-7.5v-.820313c0-4.140625-3.359375-7.5-7.5-7.5-4.144531 0-7.5 3.359375-7.5 7.5v.820313c0 4.140624 3.355469 7.5 7.5 7.5zm0 0" fill="#48c397"/><path d="m298.78125 153.148438c4.144531 0 7.5-3.359376 7.5-7.5v-.820313c0-4.140625-3.355469-7.5-7.5-7.5-4.140625 0-7.5 3.359375-7.5 7.5v.820313c0 4.140624 3.359375 7.5 7.5 7.5zm0 0" fill="#48c397"/><path d="m321.800781 153.148438c4.140625 0 7.5-3.359376 7.5-7.5v-.820313c0-4.140625-3.359375-7.5-7.5-7.5s-7.5 3.359375-7.5 7.5v.820313c0 4.140624 3.359375 7.5 7.5 7.5zm0 0" fill="#48c397"/><path d="m398.285156 26.820312h-29.851562c-9.121094 0-16.542969 7.421876-16.542969 16.542969v7.425781h-37.382813c-8.964843 0-16.257812 7.292969-16.257812 16.257813v47.128906h-83.335938v-51.242187h7.421876c9.121093 0 16.542968-7.421875 16.542968-16.542969v-29.851563c0-9.117187-7.421875-16.539062-16.542968-16.539062h-29.847657c-9.121093 0-16.542969 7.421875-16.542969 16.542969v29.847656c0 9.121094 7.421876 16.542969 16.542969 16.542969h7.425781v51.246094h-83.335937v-47.132813c0-8.964844-7.292969-16.257813-16.257813-16.257813h-37.386718v-7.425781c0-9.121093-7.421875-16.542969-16.542969-16.542969h-29.847656c-9.121094 0-16.542969 7.421876-16.542969 16.542969v29.851563c0 9.121094 7.421875 16.542968 16.542969 16.542968h29.847656c9.121094 0 16.542969-7.421874 16.542969-16.542968v-7.425782h37.386718c.691407 0 1.257813.566407 1.257813 1.257813v47.128906h-38.011719c-11.019531 0-19.980468 8.964844-19.980468 19.980469v182.867188c0 4.140624 3.359374 7.5 7.5 7.5 4.140624 0 7.5-3.359376 7.5-7.5v-182.867188c0-2.746094 2.234374-4.980469 4.980468-4.980469h287.6875c2.746094 0 4.980469 2.234375 4.980469 4.980469v72.203125c0 4.140625 3.359375 7.5 7.5 7.5s7.5-3.359375 7.5-7.5v-72.203125c0-11.015625-8.960937-19.980469-19.980469-19.980469h-38.007812v-47.128906c0-.691406.566406-1.257813 1.261718-1.257813h37.382813v7.425782c0 9.121094 7.421875 16.542968 16.542969 16.542968h29.847656c9.121094 0 16.542969-7.421874 16.542969-16.542968v-29.851563c0-9.121093-7.417969-16.542969-16.539063-16.542969zm-350.351562 46.394532c0 .847656-.691406 1.539062-1.542969 1.539062h-29.847656c-.851563 0-1.542969-.691406-1.542969-1.539062v-29.851563c0-.851562.691406-1.542969 1.542969-1.542969h29.847656c.851563 0 1.542969.691407 1.542969 1.542969zm144.554687-25.28125c-.851562 0-1.542969-.691406-1.542969-1.542969v-29.851563c0-.847656.691407-1.539062 1.542969-1.539062h29.847657c.851562 0 1.542968.691406 1.542968 1.539062v29.851563c0 .851563-.691406 1.542969-1.542968 1.542969zm207.335938 25.28125c0 .847656-.691407 1.539062-1.542969 1.539062h-29.847656c-.851563 0-1.542969-.691406-1.542969-1.539062v-29.851563c0-.851562.691406-1.542969 1.542969-1.542969h29.847656c.851562 0 1.542969.691407 1.542969 1.542969zm0 0" fill="#474d54"/><path d="m398.285156 422.246094h-29.851562c-9.121094 0-16.542969 7.417968-16.542969 16.539062v7.425782h-37.382813c-.695312 0-1.257812-.5625-1.257812-1.257813v-47.128906h44.78125c7.28125 0 13.207031-5.921875 13.207031-13.203125v-147.644532c0-4.140624-3.359375-7.5-7.5-7.5-4.144531 0-7.5 3.359376-7.5 7.5v145.847657h-82.515625c-4.140625 0-7.5 3.359375-7.5 7.5 0 4.144531 3.359375 7.5 7.5 7.5h24.527344v47.128906c0 8.964844 7.292969 16.257813 16.257812 16.257813h37.382813v7.425781c0 9.121093 7.421875 16.542969 16.542969 16.542969h29.851562c9.121094 0 16.539063-7.421876 16.539063-16.542969v-29.851563c0-9.121094-7.417969-16.539062-16.539063-16.539062zm1.539063 46.390625c0 .847656-.691407 1.542969-1.542969 1.542969h-29.847656c-.851563 0-1.542969-.691407-1.542969-1.542969v-29.851563c0-.847656.691406-1.542968 1.542969-1.542968h29.847656c.851562 0 1.542969.691406 1.542969 1.542968zm0 0" fill="#474d54"/><g fill="#abb0b7"><path d="m140.648438 238.363281c-2.929688-2.929687-7.679688-2.929687-10.605469 0l-33.351563 33.347657c-2.929687 2.929687-2.929687 7.679687 0 10.605468l33.351563 33.351563c1.460937 1.464843 3.382812 2.195312 5.300781 2.195312s3.839844-.730469 5.304688-2.195312c2.929687-2.929688 2.929687-7.679688 0-10.605469l-28.046876-28.046875 28.046876-28.042969c2.929687-2.933594 2.929687-7.679687 0-10.609375zm0 0"/><path d="m274.175781 315.667969c1.464844 1.464843 3.386719 2.195312 5.304688 2.195312s3.839843-.730469 5.304687-2.195312l33.347656-33.351563c2.929688-2.925781 2.929688-7.675781 0-10.605468l-33.347656-33.347657c-2.929687-2.929687-7.679687-2.929687-10.609375 0-2.925781 2.929688-2.925781 7.675781 0 10.605469l28.046875 28.046875-28.046875 28.042969c-2.925781 2.929687-2.925781 7.679687 0 10.609375zm0 0"/><path d="m200.421875 241.480469c-3.652344-1.949219-8.195313-.570313-10.148437 3.082031l-33.257813 62.269531c-1.949219 3.652344-.570313 8.195313 3.085937 10.148438 1.125.601562 2.332032.886719 3.527344.886719 2.675782 0 5.269532-1.441407 6.621094-3.96875l33.257812-62.265626c1.949219-3.65625.570313-8.199218-3.085937-10.152343zm0 0"/><path d="m197.792969 308.78125v.757812c0 4.140626 3.359375 7.5 7.5 7.5s7.5-3.359374 7.5-7.5v-.757812c0-4.140625-3.359375-7.5-7.5-7.5s-7.5 3.359375-7.5 7.5zm0 0"/><path d="m237.21875 309.539062v-.757812c0-4.140625-3.355469-7.5-7.5-7.5-4.140625 0-7.5 3.359375-7.5 7.5v.757812c0 4.140626 3.359375 7.5 7.5 7.5 4.144531 0 7.5-3.359374 7.5-7.5zm0 0"/><path d="m254.148438 301.28125c-4.144532 0-7.5 3.359375-7.5 7.5v.757812c0 4.140626 3.355468 7.5 7.5 7.5 4.140624 0 7.5-3.359374 7.5-7.5v-.757812c0-4.140625-3.359376-7.5-7.5-7.5zm0 0"/></g></svg>