<?xml version="1.0" encoding="utf-8"?>
<!-- Generator: Adobe Illustrator 24.0.1, SVG Export Plug-In . SVG Version: 6.00 Build 0)  -->
<svg version="1.1" id="Layer_1" xmlns="http://www.w3.org/2000/svg" xmlns:xlink="http://www.w3.org/1999/xlink" x="0px" y="0px"
	 viewBox="0 0 19 17" style="enable-background:new 0 0 19 17;" xml:space="preserve">
<style type="text/css">
	.st0{fill:#ADBCC9;}
</style>
<g transform="translate(0.498 0.502)">
	<path class="st0" d="M2.3,13.4V2.5c0-1.4,3-2.1,6-2.1c1.3,0,2.6,0.1,3.9,0.5c0.5-0.3,1.2-0.5,1.8-0.5h0c2,0,3.7,1.6,3.7,3.7
		c0,0.8-0.2,1.5-0.7,2.1c-0.1,0.2-0.3,0.2-0.5,0.1c-0.2-0.1-0.2-0.3-0.1-0.5c0,0,0,0,0,0c0.4-0.5,0.6-1.1,0.6-1.7c0-1.6-1.3-3-3-3h0
		c-1.6,0-3,1.3-3,3c0,1.6,1.3,3,3,3h0c0.6,0,1.3-0.2,1.8-0.6c0.1-0.1,0.2-0.1,0.3-0.1c0.2,0,0.3,0.2,0.3,0.4c0,0.1-0.1,0.2-0.1,0.2
		c-0.5,0.4-1.2,0.7-1.9,0.7v1.6c0,0.2-0.2,0.3-0.3,0.3c-0.2,0-0.3-0.2-0.3-0.3V9C12.4,9.7,10,10,8.3,10S4.2,9.7,3,9v1.7
		c0,0.6,2.1,1.4,5.3,1.4c3.2,0,5.3-0.8,5.3-1.4v-0.4c0-0.2,0.2-0.3,0.3-0.3c0.2,0,0.3,0.2,0.3,0.3v3.1c0,1.4-3,2.1-6,2.1
		S2.3,14.8,2.3,13.4z M3,13.4c0,0.1,0.1,0.2,0.2,0.3c0.6,0.6,2.5,1.1,5.1,1.1h0c3.2,0,5.3-0.8,5.3-1.4v-1.7
		c-1.2,0.8-3.5,1.1-5.3,1.1S4.2,12.5,3,11.7V13.4z M3,7.9C3,8.5,5,9.4,8.3,9.4c3.2,0,5.3-0.8,5.3-1.4V7.7c-0.7-0.1-1.3-0.3-1.9-0.7
		c-1.1,0.2-2.3,0.4-3.4,0.4C6.5,7.3,4.2,7,3,6.2V7.9z M3,5.2C3,5.8,5,6.6,8.3,6.6h0.1c0.9,0,1.8-0.1,2.7-0.2
		c-0.5-0.5-0.7-1.2-0.8-1.9C9.6,4.5,9,4.6,8.3,4.6h0c-0.4,0-3.8,0-5.3-1.1L3,5.2z M3,2.5C3,3.1,5,3.9,8.3,3.9c0.7,0,1.3,0,2-0.1
		c0.1-0.9,0.5-1.8,1.2-2.4c-1-0.2-2-0.3-3-0.3H8.3C5,1.1,3,1.9,3,2.5z M13.6,6.3c-0.2,0-0.4-0.2-0.4-0.4V5.6L13,5.8v0.1H13
		c-0.2,0.1-0.4,0.1-0.6,0l-0.4-0.3l0,0c-0.1-0.2-0.1-0.4,0-0.6l0.1-0.1H12c-0.2,0-0.4-0.2-0.4-0.4V3.8c0-0.2,0.2-0.4,0.4-0.4h0.2
		l-0.1-0.1C12,3.1,11.9,3,11.9,2.9c0-0.1,0-0.2,0.1-0.3l0.4-0.4c0.1-0.1,0.2-0.1,0.3-0.1c0.1,0,0.2,0,0.3,0.1l0.1,0.1V2.2
		c0-0.2,0.2-0.4,0.4-0.4h0.5c0.2,0,0.4,0.2,0.4,0.4v0.2l0.1-0.1c0.2-0.2,0.4-0.2,0.6,0l0.4,0.4c0.1,0.1,0.1,0.2,0.1,0.3
		c0,0.1,0,0.2-0.1,0.3l-0.1,0.1h0.2c0.2,0,0.4,0.2,0.4,0.4v0.5c0,0.2-0.2,0.4-0.4,0.4h-0.2l0.1,0.1c0.2,0.2,0.2,0.4,0,0.6l-0.4,0.4
		l0,0l0,0c-0.1,0.1-0.2,0.1-0.2,0.1c-0.1,0-0.2,0-0.3-0.1l-0.1-0.1v0.2c0,0.2-0.2,0.4-0.4,0.4L13.6,6.3z M13.3,5
		c0.1,0,0.1,0.1,0.2,0.1c0.1,0,0.2,0.2,0.2,0.3v0.2h0.2V5.4c0-0.2,0.1-0.3,0.2-0.3c0.1,0,0.1,0,0.2-0.1c0.1-0.1,0.3,0,0.4,0.1
		l0.2,0.2l0.1-0.1L14.9,5c-0.1-0.1-0.1-0.3-0.1-0.4c0-0.1,0.1-0.1,0.1-0.2c0-0.1,0.1-0.2,0.2-0.2v0h0.3V3.9h-0.2
		c-0.2,0-0.3-0.1-0.3-0.2c0-0.1,0-0.1-0.1-0.2c-0.1-0.1,0-0.3,0.1-0.4l0.2-0.2l-0.1-0.1l-0.2,0.2C14.7,3,14.5,3.1,14.4,3
		c-0.1,0-0.1-0.1-0.2-0.1c-0.1,0-0.2-0.2-0.3-0.3V2.4h-0.2v0.2c0,0.2-0.1,0.3-0.2,0.3c-0.1,0-0.1,0-0.2,0.1c-0.1,0.1-0.3,0-0.4-0.1
		l-0.2-0.2l-0.1,0.1l0.2,0.2c0.1,0.1,0.1,0.3,0.1,0.4c0,0.1-0.1,0.1-0.1,0.2c0,0.1-0.2,0.3-0.3,0.2h-0.2v0.2h0.2
		c0.2,0,0.3,0.1,0.3,0.2c0,0.1,0,0.1,0.1,0.2c0.1,0.1,0,0.3-0.1,0.4l-0.2,0.2l0.1,0.1l0.2-0.2C13,5,13,5,13.1,5
		C13.2,5,13.3,5,13.3,5z M13,4c0-0.5,0.4-0.9,0.9-0.9c0.5,0,0.9,0.4,0.9,0.9c0,0.5-0.4,0.9-0.9,0.9C13.4,4.9,13,4.5,13,4
		C13,4,13,4,13,4L13,4z M13.5,4c0,0.2,0.2,0.4,0.4,0.4c0,0,0,0,0,0h0c0.2,0,0.4-0.2,0.3-0.4S14,3.6,13.8,3.6
		C13.6,3.7,13.5,3.8,13.5,4L13.5,4z"/>
</g>
</svg>
