<?xml version="1.0" encoding="iso-8859-1"?>
<!-- Generator: Adobe Illustrator 19.0.0, SVG Export Plug-In . SVG Version: 6.00 Build 0)  -->
<svg version="1.1" id="Capa_1" xmlns="http://www.w3.org/2000/svg" xmlns:xlink="http://www.w3.org/1999/xlink" x="0px" y="0px"
	 viewBox="0 0 480 480" style="enable-background:new 0 0 480 480;" xml:space="preserve">
<g>
	<circle style="fill:#6ACCEF;" cx="240" cy="224" r="40"/>
	<polygon style="fill:#6ACCEF;" points="376,304 376,264 240,264 104,264 104,304 200,304 200,368 184,472 224,472 240,368 256,472 
		296,472 280,368 280,304 	"/>
</g>
<circle style="fill:#E05346;" cx="376" cy="104" r="96"/>
<circle style="fill:#63C9B5;" cx="104" cy="104" r="96"/>
<g>
	<path style="fill:#31324D;" d="M376,0c-57.344,0-104,46.656-104,104c0,54.64,42.392,99.48,96,103.592V256h-92.32
		c7.632-8.504,12.32-19.696,12.32-32c0-26.472-21.528-48-48-48s-48,21.528-48,48c0,12.304,4.688,23.496,12.32,32H112v-48.408
		c53.608-4.112,96-48.952,96-103.592C208,46.656,161.344,0,104,0S0,46.656,0,104c0,54.64,42.392,99.48,96,103.592V264v40
		c0,4.424,3.576,8,8,8h88v55.392l-15.904,103.392c-0.36,2.312,0.312,4.656,1.832,6.432c1.52,1.768,3.736,2.784,6.072,2.784h40
		c3.944,0,7.304-2.88,7.904-6.784L240,420.608l8.096,52.608c0.6,3.904,3.96,6.784,7.904,6.784h40c2.336,0,4.552-1.016,6.072-2.792
		s2.192-4.12,1.832-6.432L288,367.392V312h88c4.424,0,8-3.576,8-8v-40v-56.408c53.608-4.112,96-48.952,96-103.592
		C480,46.656,433.344,0,376,0z M208,224c0-17.648,14.352-32,32-32s32,14.352,32,32s-14.352,32-32,32S208,241.648,208,224z M16,104
		c0-48.52,39.48-88,88-88s88,39.48,88,88s-39.48,88-88,88S16,152.52,16,104z M368,296h-88c-4.424,0-8,3.576-8,8v64
		c0,0.408,0.032,0.816,0.096,1.216L286.672,464h-23.808l-14.96-97.216c-0.6-3.904-3.96-6.784-7.904-6.784s-7.304,2.88-7.904,6.784
		L217.136,464h-23.808l14.576-94.784c0.064-0.4,0.096-0.808,0.096-1.216v-64c0-4.424-3.576-8-8-8h-88v-24h256V296z M376,192
		c-48.52,0-88-39.48-88-88s39.48-88,88-88s88,39.48,88,88S424.52,192,376,192z"/>
	<path style="fill:#31324D;" d="M160,104c0-30.872-25.128-56-56-56s-56,25.128-56,56s25.128,56,56,56S160,134.872,160,104z M64,104
		c0-22.056,17.944-40,40-40s40,17.944,40,40s-17.944,40-40,40S64,126.056,64,104z"/>
	<polygon style="fill:#31324D;" points="410.344,58.344 376,92.688 341.656,58.344 330.344,69.656 364.688,104 330.344,138.344 
		341.656,149.656 376,115.312 410.344,149.656 421.656,138.344 387.312,104 421.656,69.656 	"/>
</g>
<g>
</g>
<g>
</g>
<g>
</g>
<g>
</g>
<g>
</g>
<g>
</g>
<g>
</g>
<g>
</g>
<g>
</g>
<g>
</g>
<g>
</g>
<g>
</g>
<g>
</g>
<g>
</g>
<g>
</g>
</svg>
