<?xml version="1.0" encoding="utf-8"?>
<!-- Generator: Adobe Illustrator 24.0.1, SVG Export Plug-In . SVG Version: 6.00 Build 0)  -->
<svg version="1.1" id="Layer_1" xmlns="http://www.w3.org/2000/svg" xmlns:xlink="http://www.w3.org/1999/xlink" x="0px" y="0px"
	 viewBox="0 0 19 17" style="enable-background:new 0 0 19 17;" xml:space="preserve">
<style type="text/css">
	.st0{fill:none;}
	.st1{fill:#ADBCC9;}
</style>
<g transform="translate(-6.404 -17.236)">
	<path class="st0" d="M19.1,29.2c-0.2,0-0.4,0.2-0.4,0.4c0,0.2,0.2,0.4,0.4,0.4c0.2,0,0.4-0.2,0.4-0.4c0,0,0,0,0,0
		C19.4,29.4,19.3,29.2,19.1,29.2C19.1,29.2,19.1,29.2,19.1,29.2z"/>
	<path class="st0" d="M18,24.9h-4.1c-0.1,0-0.1,0-0.2,0.1l-1.4,3h7.2l-1.4-3C18.1,24.9,18,24.9,18,24.9z"/>
	<path class="st1" d="M20.5,28.5l-1.7-3.8c-0.2-0.4-0.5-0.6-0.9-0.6h-4.1c-0.4,0-0.7,0.2-0.9,0.6l-1.7,3.8v0
		c-0.1,0.1-0.1,0.2-0.1,0.3v1.6c0,0.4,0.4,0.8,0.8,0.8h7.9c0.4,0,0.8-0.4,0.8-0.8v-1.6C20.6,28.7,20.6,28.6,20.5,28.5L20.5,28.5z
		 M19.1,30c-0.2,0-0.4-0.2-0.4-0.4c0-0.2,0.2-0.4,0.4-0.4c0.2,0,0.4,0.2,0.4,0.4C19.4,29.8,19.3,30,19.1,30C19.1,30,19.1,30,19.1,30
		z M12.3,28l1.4-3c0-0.1,0.1-0.1,0.2-0.1H18c0.1,0,0.1,0,0.2,0.1l1.4,3H12.3z"/>
	<g>
		<path class="st1" d="M24.5,26.3l-1.8-3C22.6,23,22.3,22.9,22,23l-2.1,0.8c-0.4-0.3-0.9-0.6-1.4-0.8l-0.3-2.2
			c0-0.3-0.3-0.5-0.6-0.5h-3.5c-0.3,0-0.6,0.2-0.6,0.5l-0.3,2.2c-0.5,0.2-0.9,0.5-1.4,0.8L9.8,23c-0.3-0.1-0.6,0-0.8,0.3l-1.8,3
			c-0.2,0.3-0.1,0.6,0.1,0.8l1.7,1.3h1.4l0.2-0.4H9.2l-1.6-1.3c-0.1-0.1-0.1-0.2-0.1-0.3l1.8-3c0.1-0.1,0.2-0.2,0.3-0.1l2.3,0.9
			l0.1-0.1c0.4-0.3,0.9-0.6,1.4-0.8l0.1,0l0.3-2.4c0-0.1,0.1-0.2,0.2-0.2h3.5c0.1,0,0.2,0.1,0.2,0.2l0.3,2.4l0.1,0
			c0.5,0.2,1,0.5,1.4,0.8l0.1,0.1l2.3-0.9c0.1,0,0.3,0,0.3,0.1l1.8,3c0.1,0.1,0,0.3-0.1,0.3l-1.6,1.3h-1.5l0.2,0.4h1.4l1.7-1.3
			C24.6,26.9,24.7,26.6,24.5,26.3z"/>
		<path class="st1" d="M10.7,28.7H9l-1.8-1.4c-0.3-0.3-0.4-0.7-0.2-1.1l1.8-3c0.2-0.4,0.7-0.5,1.1-0.4l2,0.8
			c0.4-0.3,0.8-0.5,1.2-0.7l0.3-2.1c0.1-0.4,0.4-0.7,0.8-0.7h3.5c0.4,0,0.8,0.3,0.9,0.7l0.3,2.1c0.4,0.2,0.8,0.4,1.2,0.7l2-0.8
			c0.4-0.2,0.9,0,1.1,0.4l1.8,3c0.2,0.4,0.1,0.8-0.2,1.1l-1.8,1.4h-1.7l-0.4-0.9h1.8l1.5-1.2l-1.8-3l-2.4,1l-0.2-0.1
			c-0.4-0.3-0.9-0.6-1.4-0.8L18,23.5l-0.4-2.6l-3.5,0l-0.4,2.6l-0.2,0.1c-0.5,0.2-1,0.5-1.4,0.8L12,24.5l-2.4-1l-1.8,3l1.5,1.2h1.8
			L10.7,28.7z"/>
	</g>
</g>
</svg>
