<?xml version="1.0" encoding="utf-8"?>
<!-- Generator: Adobe Illustrator 22.1.0, SVG Export Plug-In . SVG Version: 6.00 Build 0)  -->
<svg version="1.1" id="Layer_1" xmlns="http://www.w3.org/2000/svg" xmlns:xlink="http://www.w3.org/1999/xlink" x="0px" y="0px"
	 viewBox="0 0 509.3 509.3" style="enable-background:new 0 0 509.3 509.3;" xml:space="preserve">
<style type="text/css">
	.st0{fill:#5D647F;}
	.st1{fill:#68748D;}
	.st2{fill:#5093FF;}
	.st3{fill:#5C546A;}
	.st4{fill:#FFE671;}
	.st5{fill:#FFCD00;}
</style>
<g>
	<g>
		<path class="st0" d="M398.5,210.6c0-2.3-1-4.5-2.7-6c-1.7-1.5-4-2.2-6.3-2l-271.8,32c-4,0.5-7.1,3.9-7.1,7.9v72
			c0,31.6,90.5,40,144,40s144-8.4,144-40c0,0,0,0,0,0L398.5,210.6z"/>
	</g>
	<g>
		<path class="st1" d="M398.5,234.7h-144v120c0.1,0,0.1,0,0.2,0c52.1,0,139.3-8,143.8-37.6V234.7z"/>
	</g>
	<g>
		<path class="st2" d="M493.1,166.5L288.4,96.3c-21.8-7.5-45.7-7.5-67.5,0L16.2,166.5C6.4,169.8,0,178.8,0,189.2
			c0,10.4,6.4,19.3,16.2,22.7l204.7,70.2c10.9,3.7,22.3,5.6,33.7,5.6c11.4,0,22.9-1.9,33.7-5.6l204.7-70.2
			c9.9-3.4,16.2-12.3,16.2-22.7C509.3,178.8,503,169.8,493.1,166.5z"/>
	</g>
	<g>
		<g>
			<path class="st3" d="M406.5,362.7c-4.4,0-8-3.6-8-8V250.1c0-3.4-2.2-6.5-5.4-7.6l-141.2-48.4c-4.2-1.4-6.4-6-5-10.2
				c1.4-4.2,6-6.4,10.2-5l141.2,48.4c9.7,3.3,16.2,12.4,16.2,22.7v104.5C414.5,359.1,410.9,362.7,406.5,362.7z"/>
		</g>
	</g>
	<g>
		<path class="st4" d="M414.5,418.7h-16c-4.4,0-8-3.6-8-8v-48c0-8.8,7.2-16,16-16l0,0c8.8,0,16,7.2,16,16v48
			C422.5,415.1,418.9,418.7,414.5,418.7z"/>
	</g>
	<g>
		<path class="st0" d="M254.7,322.7c58,0,116.6-8.8,144-25.8l0-21.9c-0.9,10.9-51.6,31.7-143.9,31.7c-93.2,0-144-21.1-144-32v22.2
			C138,313.9,196.6,322.7,254.7,322.7z"/>
	</g>
	<g>
		<g>
			<path class="st3" d="M398.5,297c0.1,0,0.1-0.1,0.2-0.1l0-21.9c0,0.1-0.1,0.3-0.1,0.4V297z"/>
		</g>
		<g>
			<path class="st3" d="M254.5,306.7c-93,0-143.8-21.1-143.8-32v22.2c27.3,17,85.8,25.8,143.8,25.8V306.7z"/>
		</g>
	</g>
	<g>
		<ellipse class="st0" cx="254.7" cy="186.7" rx="32" ry="16"/>
	</g>
	<g>
		<path class="st5" d="M390.5,362.7v48c0,4.4,3.6,8,8,8h8v-72C397.6,346.7,390.5,353.8,390.5,362.7z"/>
	</g>
</g>
</svg>
