<?xml version="1.0" encoding="utf-8"?>
<!-- Generator: Adobe Illustrator 24.0.1, SVG Export Plug-In . SVG Version: 6.00 Build 0)  -->
<svg version="1.1" id="Layer_1" xmlns="http://www.w3.org/2000/svg" xmlns:xlink="http://www.w3.org/1999/xlink" x="0px" y="0px"
	 viewBox="0 0 19 19" style="enable-background:new 0 0 19 19;" xml:space="preserve">
<style type="text/css">
	.st0{fill:#ADBCC9;}
</style>
<g transform="translate(0 0.05)">
	<g transform="translate(0 -0.05)">
		<path class="st0" d="M5.3,17.9l0.3-0.1C6,17.7,6.1,17.4,6,17.1c0,0,0,0,0,0L2.5,4.4C2.4,4.1,2,3.9,1.6,4c0,0,0,0,0,0l0,0
			C1.2,4.1,1,4.5,1.1,4.8c0,0,0,0,0,0l3.5,12.7C4.7,17.8,5,18,5.3,17.9C5.3,17.9,5.3,17.9,5.3,17.9z"/>
		<path class="st0" d="M17.8,9c-1.1-0.6-2.2-1.3-3.1-2.1c-0.1-0.1-0.1-0.2-0.1-0.3c0.5-1.7,0.8-3.5,1-5.3c0-0.3-0.1-0.4-0.3-0.2
			C12.1,5.1,6.4,0.5,3,4C3,4.1,3,4.2,3.1,4.3l2.3,8.2c3.4-3.5,9.1,1.1,12.4-2.8C17.9,9.5,18,9.1,17.8,9z"/>
	</g>
</g>
</svg>
