<?xml version="1.0" encoding="utf-8"?>
<!-- Generator: Adobe Illustrator 22.1.0, SVG Export Plug-In . SVG Version: 6.00 Build 0)  -->
<svg version="1.1" id="Capa_1" xmlns="http://www.w3.org/2000/svg" xmlns:xlink="http://www.w3.org/1999/xlink" x="0px" y="0px"
	 viewBox="0 0 512 512" style="enable-background:new 0 0 512 512;" xml:space="preserve">
<style type="text/css">
	.st0{fill:#04A808;}
</style>
<path class="st0" d="M444.5,49.9c-1.5-0.6-38.4-15.1-82.2-15.1c-26.1,0-49.2,5.2-68.6,15.5C276.5,59.4,253.2,64,224.4,64
	c-40.3,0-80.1-9.2-94.3-12.8V33.6c0-4.2-3.3-7.6-7.6-7.6c-4.3,0-7.6,3.3-7.6,7.6v22.7c0,0.1,0,0.2,0.1,0.3c0,0.1-0.1,0.1-0.1,0.2
	v219.8v8.2v189.4c0,4.2,3.3,7.6,7.6,7.6c4.3,0,7.6-3.3,7.6-7.6V294.9c17.3,4.3,55.1,12.4,94.3,12.4c31.3,0,57-5.2,76.4-15.5
	c17.2-9.1,37.9-13.7,61.4-13.7c40.8,0,76.2,14,76.5,14.1c2.3,0.9,5,0.7,7-0.8c2.1-1.4,3.3-3.8,3.3-6.2V56.9
	C449.2,53.8,447.4,51.1,444.5,49.9z"/>
</svg>
