<?xml version="1.0" encoding="utf-8"?>
<!-- Generator: Adobe Illustrator 24.0.1, SVG Export Plug-In . SVG Version: 6.00 Build 0)  -->
<svg version="1.1" id="Layer_1" xmlns="http://www.w3.org/2000/svg" xmlns:xlink="http://www.w3.org/1999/xlink" x="0px" y="0px"
	 viewBox="0 0 19.5 17.3" style="enable-background:new 0 0 19.5 17.3;" xml:space="preserve">
<style type="text/css">
	.st0{fill:#ADBCC9;}
</style>
<g>
	<path class="st0" d="M15.4,0.1H3.8C1.7,0.1,0,1.8,0,4v9.4c0,2.2,1.8,3.8,3.8,3.8h11.6c2.2,0,3.8-1.8,3.8-3.8V4
		C19.2,1.8,17.4,0.1,15.4,0.1z M2,10.5c-0.2,0-0.3-0.1-0.4-0.2c-0.1-0.1-0.2-0.2-0.2-0.3c0-0.1,0.1-0.3,0.2-0.4
		C1.7,9.5,1.8,9.4,2,9.4c0.2,0,0.3,0,0.4,0.2c0.2,0.2,0.2,0.5,0,0.7C2.3,10.5,2.2,10.5,2,10.5z M4.4,10.4c0,0.4-0.1,0.8-0.4,1.1
		C3.7,11.8,3.4,12,3,12c-0.2,0-0.3,0-0.5-0.1v-0.8c0.1,0.1,0.2,0.1,0.4,0.1c0.3,0,0.5-0.3,0.5-0.8V7.2h1V10.4z M4.3,6.5
		C4.2,6.6,4,6.7,3.9,6.7c-0.2,0-0.3-0.1-0.5-0.2C3.3,6.4,3.3,6.3,3.3,6.1c0-0.1,0.1-0.3,0.2-0.4C3.7,5.6,4,5.6,4.3,5.8
		c0.1,0,0.2,0.2,0.2,0.3C4.5,6.2,4.4,6.4,4.3,6.5z M7.8,10c-0.1,0-0.2,0.2-0.3,0.2c-0.2,0.1-0.3,0.2-0.5,0.2
		c-0.2,0.1-0.4,0.1-0.6,0.1c-0.3,0-0.7-0.1-1-0.2V9.5c0.2,0.1,0.3,0.2,0.5,0.2s0.3,0.1,0.5,0.1c0.1,0,0.3,0,0.4-0.1
		C6.9,9.7,7,9.6,7,9.5c0-0.1,0-0.1-0.1-0.2c-0.1,0-0.1-0.1-0.2-0.1c-0.1,0-0.2-0.1-0.2-0.1c-0.1,0-0.2,0-0.3-0.1
		C6.1,9,6,8.9,5.8,8.8c0,0-0.1,0-0.2-0.1C5.6,8.6,5.6,8.5,5.5,8.4c0-0.1-0.1-0.2-0.1-0.4c0-0.2,0-0.3,0.1-0.5
		c0.1-0.1,0.2-0.2,0.3-0.3c0.3,0,0.4-0.1,0.6-0.1c0.2,0,0.4-0.1,0.5-0.1c0.2,0,0.3,0,0.4,0c0.2,0,0.3,0.1,0.4,0.1v0.8
		c0,0-0.1-0.1-0.3-0.1C7.2,7.8,7,7.7,6.9,7.7c-0.1,0-0.1,0-0.2,0c-0.1,0-0.1,0-0.2,0.1L6.4,7.9V8c0,0.1,0,0.1,0.1,0.2
		c0,0,0.1,0.1,0.2,0.1c0.1,0,0.1,0.1,0.2,0.1c0.1,0,0.2,0,0.2,0.1c0.1,0,0.2,0,0.3,0.1c0.1,0.1,0.2,0.1,0.3,0.2
		C7.8,8.9,7.8,9,7.9,9.1C8,9.4,8,9.7,7.8,10z M11.8,10c-0.3,0.3-0.8,0.5-1.3,0.5c-0.5,0-1-0.1-1.3-0.5c-0.7-0.7-0.7-1.8,0-2.4
		c0.4-0.3,0.8-0.5,1.3-0.5c0.5,0,0.9,0.1,1.3,0.5c0.3,0.3,0.5,0.8,0.5,1.2C12.3,9.2,12.1,9.7,11.8,10z M16.7,10.4h-1V8.6
		c0-0.5-0.2-0.8-0.6-0.8c-0.2,0-0.3,0.1-0.4,0.2c-0.1,0.1-0.2,0.3-0.2,0.5v1.9h-1V7.2h1v0.5c0.2-0.4,0.6-0.6,1.1-0.6
		c0.7,0,1.1,0.5,1.1,1.4V10.4z"/>
	<path class="st0" d="M10.6,7.8c-0.2,0-0.4,0.1-0.6,0.3C9.9,8.2,9.8,8.5,9.9,8.7c0,0.6,0.3,1,0.8,1s0.7-0.3,0.7-1
		C11.3,8.1,11,7.8,10.6,7.8z"/>
</g>
</svg>
