<?xml version="1.0" encoding="utf-8"?>
<!-- Generator: Adobe Illustrator 24.0.1, SVG Export Plug-In . SVG Version: 6.00 Build 0)  -->
<svg version="1.1" id="Layer_1" xmlns="http://www.w3.org/2000/svg" xmlns:xlink="http://www.w3.org/1999/xlink" x="0px" y="0px"
	 viewBox="0 0 64 64" style="enable-background:new 0 0 64 64;" xml:space="preserve">
<style type="text/css">
	.st0{fill:#BCC8D3;}
</style>
<path id="ic_add_alert_24px" class="st0" d="M26,56.8c0,3.2,2.6,5.8,5.8,5.8c3.2,0,5.8-2.6,5.8-5.8H26z M51.8,44.6V27.6
	c0-9.3-6.4-17.3-15.4-19.5V6.1c0-2.6-2.1-4.6-4.6-4.6c-2.6,0-4.6,2.1-4.6,4.6v2.1c-9,2.1-15.4,10.2-15.4,19.5v16.9l-6.2,6.2v3.1H58
	v-3.1L51.8,44.6z M43.4,33.5h-8.7v8.7h-5.8v-8.7h-8.7v-5.8h8.7v-8.7h5.8v8.7h8.7L43.4,33.5z"/>
</svg>
