<?xml version="1.0" encoding="utf-8"?>
<!-- Generator: Adobe Illustrator 24.0.1, SVG Export Plug-In . SVG Version: 6.00 Build 0)  -->
<svg version="1.1" id="Layer_1" xmlns="http://www.w3.org/2000/svg" xmlns:xlink="http://www.w3.org/1999/xlink" x="0px" y="0px"
	 viewBox="0 0 490 490" style="enable-background:new 0 0 490 490;" xml:space="preserve">
<style type="text/css">
	.st0{fill:#FFFFFF;}
</style>
<g>
	<g>
		<path d="M432.5,136.6L307,11.1c-2.8-2.8-6.8-4.6-11.1-4.6H76.2c-8.7,0-15.7,7-15.7,15.7V472c0,8.7,7,15.7,15.7,15.7h345.2
			c8.7,0,15.7-7,15.7-15.7V147.7C437.1,143.7,435.5,139.6,432.5,136.6z M311.6,60l36,36l36,36h-72L311.6,60L311.6,60z M405.7,456.3
			H91.9V37.8h188.3v109.8c0,8.7,7,15.7,15.7,15.7h109.8L405.7,456.3L405.7,456.3z"/>
	</g>
</g>
<g>
	<path class="st0" d="M465,468.1H25.6c-4.6,0-8.3-5.2-8.3-11.6V244.7c0-6.5,3.7-11.6,8.3-11.6H465c4.6,0,8.3,5.2,8.3,11.6v211.7
		C473.3,462.7,469.6,468.1,465,468.1z"/>
	<path d="M465,487.7H25.6c-12.3,0-22.3-14-22.3-31.3V244.7c0-17.3,10-31.3,22.3-31.3H465c12.3,0,22.3,14,22.3,31.3v211.7
		C487.3,473.7,477.3,487.7,465,487.7z M31.3,448.4h428V252.7h-428V448.4z"/>
</g>
<g>
	<path d="M182.4,409.7h-30.9l-20-37.7c-0.8-1.4-1.5-4-2.3-7.8h-0.3c-0.4,1.8-1.3,4.5-2.7,8.1l-20,37.4H75l36.9-57.9l-33.8-57.9H110
		l16.6,34.7c1.3,2.7,2.5,6,3.5,9.8h0.3c0.6-2.3,1.9-5.6,3.6-10.1l18.4-34.4h29.1l-34.7,57.5L182.4,409.7z"/>
	<path d="M328.3,409.7h-25.8v-69.3c0-7.5,0.3-15.8,1-24.8h-0.6c-1.3,7.1-2.6,12.2-3.6,15.4l-27.2,78.8h-21.3l-27.6-78
		c-0.8-2.1-2-7.5-3.6-16.2h-0.7c0.7,11.4,1,21.4,1,30.1v64.1h-23.5V293.8h38.2l23.7,68.7c1.9,5.5,3.3,11,4.1,16.6h0.5
		c1.5-6.4,3-12,4.6-16.7l23.7-68.5h37.3V409.7z"/>
	<path d="M423.7,409.7h-69V293.8h26.1v94.7h42.9V409.7z"/>
</g>
</svg>
