<?xml version="1.0" encoding="utf-8"?>
<!-- Generator: Adobe Illustrator 24.0.1, SVG Export Plug-In . SVG Version: 6.00 Build 0)  -->
<svg version="1.1" id="Layer_1" xmlns="http://www.w3.org/2000/svg" xmlns:xlink="http://www.w3.org/1999/xlink" x="0px" y="0px"
	 viewBox="0 0 490 490" style="enable-background:new 0 0 490 490;" xml:space="preserve">
<style type="text/css">
	.st0{fill:#FFFFFF;}
</style>
<g>
	<g>
		<path d="M432.5,136.6L307,11.1c-2.8-2.8-6.8-4.6-11.1-4.6H76.2c-8.7,0-15.7,7-15.7,15.7V472c0,8.7,7,15.7,15.7,15.7h345.2
			c8.7,0,15.7-7,15.7-15.7V147.7C437.1,143.7,435.5,139.6,432.5,136.6z M311.6,60l36,36l36,36h-72L311.6,60L311.6,60z M405.7,456.3
			H91.9V37.8h188.3v109.8c0,8.7,7,15.7,15.7,15.7h109.8L405.7,456.3L405.7,456.3z"/>
	</g>
</g>
<g>
	<path class="st0" d="M465,468.1H25.6c-4.6,0-8.3-5.2-8.3-11.6V244.7c0-6.5,3.7-11.6,8.3-11.6H465c4.6,0,8.3,5.2,8.3,11.6v211.7
		C473.3,462.7,469.6,468.1,465,468.1z"/>
	<path d="M465,487.7H25.6c-12.3,0-22.3-14-22.3-31.3V244.7c0-17.3,10-31.3,22.3-31.3H465c12.3,0,22.3,14,22.3,31.3v211.7
		C487.3,473.7,477.3,487.7,465,487.7z M31.3,448.4h428V252.7h-428V448.4z"/>
</g>
<g>
	<path d="M100.1,362.6c0,15.3-3.6,27.1-10.7,35.2c-7.1,8.1-17.4,12.2-30.9,12.2c-6,0-11.6-1-16.7-3.1v-24.2c4.4,3.4,9.4,5,14.9,5
		c11.8,0,17.7-8.7,17.7-26.2v-68.1h25.7V362.6z"/>
	<path d="M119.9,403.7v-25.6c4.6,3.9,9.7,6.8,15.1,8.7c5.4,1.9,10.9,2.9,16.5,2.9c3.2,0,6.1-0.3,8.5-0.9c2.4-0.6,4.4-1.4,6.1-2.4
		c1.6-1,2.8-2.3,3.6-3.7c0.8-1.4,1.2-2.9,1.2-4.6c0-2.2-0.6-4.2-1.9-6c-1.3-1.8-3-3.4-5.2-4.9c-2.2-1.5-4.8-2.9-7.9-4.3
		c-3-1.4-6.3-2.8-9.8-4.2c-8.9-3.7-15.6-8.3-20-13.7c-4.4-5.4-6.6-11.9-6.6-19.5c0-6,1.2-11.1,3.6-15.4c2.4-4.3,5.7-7.8,9.8-10.6
		c4.1-2.8,8.9-4.8,14.3-6.1c5.4-1.3,11.2-2,17.3-2c6,0,11.2,0.4,15.9,1.1c4.6,0.7,8.9,1.8,12.7,3.3v23.9c-1.9-1.3-4-2.5-6.3-3.5
		c-2.3-1-4.6-1.8-7-2.5c-2.4-0.7-4.8-1.2-7.1-1.5c-2.4-0.3-4.6-0.5-6.7-0.5c-2.9,0-5.6,0.3-8,0.8c-2.4,0.6-4.4,1.3-6.1,2.4
		c-1.7,1-2.9,2.2-3.8,3.6c-0.9,1.4-1.4,3-1.4,4.8c0,1.9,0.5,3.6,1.5,5.2c1,1.5,2.4,3,4.3,4.3c1.9,1.4,4.1,2.7,6.8,4
		c2.7,1.3,5.7,2.6,9,4c4.6,1.9,8.7,4,12.3,6.1c3.6,2.2,6.8,4.6,9.4,7.3c2.6,2.7,4.6,5.8,6,9.3c1.4,3.5,2.1,7.5,2.1,12.2
		c0,6.4-1.2,11.8-3.6,16.1c-2.4,4.3-5.7,7.9-9.9,10.5c-4.2,2.7-9,4.6-14.5,5.8c-5.5,1.2-11.3,1.8-17.5,1.8c-6.3,0-12.3-0.5-17.9-1.6
		C129,407.4,124.1,405.8,119.9,403.7z"/>
	<path d="M265.3,410.1c-16.4,0-29.8-5.3-40.1-16c-10.3-10.7-15.5-24.6-15.5-41.7c0-18.1,5.2-32.8,15.7-43.9
		c10.5-11.2,24.4-16.8,41.7-16.8c16.3,0,29.6,5.4,39.7,16.1c10.1,10.7,15.1,24.8,15.1,42.3c0,18-5.2,32.5-15.7,43.5
		C295.8,404.5,282.1,410.1,265.3,410.1z M266.4,313.8c-9.1,0-16.2,3.4-21.6,10.2c-5.3,6.8-8,15.8-8,27c0,11.3,2.7,20.3,8,26.9
		c5.3,6.6,12.3,9.9,20.9,9.9c8.9,0,15.9-3.2,21.2-9.6c5.2-6.4,7.8-15.3,7.8-26.7c0-11.9-2.5-21.1-7.6-27.7
		C282.1,317.1,275.2,313.8,266.4,313.8z"/>
	<path d="M444,408.1h-26l-47.2-72c-2.8-4.2-4.7-7.4-5.8-9.5h-0.3c0.4,4,0.6,10.2,0.6,18.5v62.9h-24.4V293.5h27.8l45.5,69.7
		c2.1,3.1,4,6.3,5.8,9.3h0.3c-0.4-2.7-0.6-7.9-0.6-15.7v-63.3H444V408.1z"/>
</g>
</svg>
