<svg xmlns="http://www.w3.org/2000/svg" width="17.419" height="20.769" viewBox="0 0 17.419 20.769"><g transform="translate(-48 -8)"><path d="M209.9,123.255h-1.05v2.87h1.007a1.669,1.669,0,0,0,1.2-.432,1.44,1.44,0,0,0,.46-1.086Q211.515,123.255,209.9,123.255Z" transform="translate(-154.112 -110.429)" fill="none"/><path d="M96,440.335a.335.335,0,0,0,.335.335h14.4V440h-14.4A.335.335,0,0,0,96,440.335Z" transform="translate(-45.99 -413.911)" fill="none"/><path d="M64,409.675a1.677,1.677,0,0,0,1.675,1.675h14.4v-.67h-14.4a1,1,0,1,1,0-2.01h14.4V408h-14.4A1.677,1.677,0,0,0,64,409.675Z" transform="translate(-15.33 -383.251)" fill="none"/><path d="M78.069,24H66.01A2.012,2.012,0,0,0,64,26.01v14.1a2.338,2.338,0,0,1,1.675-.705h14.4V26.01A2.012,2.012,0,0,0,78.069,24ZM76.395,38.069h-8.71V37.4h8.71Zm-2.668-1.34-1.6-2.654q-.18-.3-.345-.539a3.009,3.009,0,0,0-.334-.406,1.333,1.333,0,0,0-.352-.259.9.9,0,0,0-.4-.09h-.626V36.73H67.742V26.416h3.683q3.754,0,3.754,2.805a2.905,2.905,0,0,1-.165,1,2.767,2.767,0,0,1-.468.824,2.963,2.963,0,0,1-.73.633,3.766,3.766,0,0,1-.953.417v.029a1.479,1.479,0,0,1,.446.234,3.193,3.193,0,0,1,.417.378,5.276,5.276,0,0,1,.385.464q.183.248.334.485l1.949,3.05Z" transform="translate(-15.33 -15.33)" fill="none"/><path d="M62.739,8H50.68A2.683,2.683,0,0,0,48,10.68V26.424a2.348,2.348,0,0,0,2.345,2.345H65.084a.335.335,0,0,0,.335-.335V10.68A2.683,2.683,0,0,0,62.739,8Zm2.01,18.759h-14.4a.335.335,0,1,1,0-.67h14.4Zm0-1.34h-14.4a1,1,0,0,0,0,2.01h14.4v.67h-14.4a1.675,1.675,0,1,1,0-3.35h14.4Zm0-1.34h-14.4a2.338,2.338,0,0,0-1.675.705V10.68a2.012,2.012,0,0,1,2.01-2.01h12.06a2.012,2.012,0,0,1,2.01,2.01Z" fill="#bcc8d3"/><rect width="8" transform="translate(53 22.269)" fill="#bcc8d3"/><path d="M159.736,88.467a5.272,5.272,0,0,0-.385-.464,3.194,3.194,0,0,0-.417-.378,1.479,1.479,0,0,0-.446-.234v-.029a3.766,3.766,0,0,0,.953-.417,2.963,2.963,0,0,0,.73-.633,2.766,2.766,0,0,0,.468-.824,2.905,2.905,0,0,0,.165-1q0-2.805-3.754-2.805h-3.683V92h2.323V88.053h.626a.9.9,0,0,1,.4.09,1.333,1.333,0,0,1,.352.259,3.007,3.007,0,0,1,.334.406q.165.237.345.539l1.6,2.654h2.668l-1.949-3.05Q159.919,88.715,159.736,88.467Zm-1.838-2.6a1.669,1.669,0,0,1-1.2.432H155.69v-2.87h1.05q1.618,0,1.618,1.352A1.44,1.44,0,0,1,157.9,85.867Z" transform="translate(-100.955 -70.602)" fill="#bcc8d3"/></g></svg>