<?xml version="1.0" encoding="iso-8859-1"?>
<!-- Generator: Adobe Illustrator 19.0.0, SVG Export Plug-In . SVG Version: 6.00 Build 0)  -->
<svg version="1.1" id="Capa_1" xmlns="http://www.w3.org/2000/svg" xmlns:xlink="http://www.w3.org/1999/xlink" x="0px" y="0px"
	 viewBox="0 0 512 512" style="enable-background:new 0 0 512 512;" xml:space="preserve">
<linearGradient id="SVGID_1_" gradientUnits="userSpaceOnUse" x1="325.4101" y1="187.0906" x2="385.0901" y2="246.7606" gradientTransform="matrix(1.0039 0 0 -1.0039 0.1922 516.5598)">
	<stop  offset="0" style="stop-color:#816965"/>
	<stop  offset="1" style="stop-color:#654E48"/>
</linearGradient>
<polygon style="fill:url(#SVGID_1_);" points="453.53,383.579 426.606,410.504 245.114,229.011 272.038,202.087 "/>
<linearGradient id="SVGID_2_" gradientUnits="userSpaceOnUse" x1="159.0477" y1="398.162" x2="325.6377" y2="231.572" gradientTransform="matrix(1.0039 0 0 -1.0039 0.1922 516.5598)">
	<stop  offset="0" style="stop-color:#FF931E"/>
	<stop  offset="1" style="stop-color:#FF5D00"/>
</linearGradient>
<polygon style="fill:url(#SVGID_2_);" points="350.219,116.417 159.444,307.191 71.201,218.948 261.975,28.175 "/>
<linearGradient id="SVGID_3_" gradientUnits="userSpaceOnUse" x1="305.1977" y1="252.012" x2="267.2377" y2="289.972" gradientTransform="matrix(1.0039 0 0 -1.0039 0.1922 516.5598)">
	<stop  offset="0" style="stop-color:#654E48;stop-opacity:0"/>
	<stop  offset="0.526" style="stop-color:#57403D;stop-opacity:0.526"/>
	<stop  offset="1" style="stop-color:#503837"/>
</linearGradient>
<polygon style="fill:url(#SVGID_3_);" points="294.061,277.959 320.986,251.034 272.038,202.087 245.114,229.011 "/>
<linearGradient id="SVGID_4_" gradientUnits="userSpaceOnUse" x1="168.2277" y1="388.982" x2="262.8577" y2="294.352" gradientTransform="matrix(1.0039 0 0 -1.0039 0.1922 516.5598)">
	<stop  offset="0" style="stop-color:#FFE7A5"/>
	<stop  offset="0.966" style="stop-color:#FFBF5C"/>
</linearGradient>
<path style="fill:url(#SVGID_4_);" d="M311.461,187.952l-80.482,80.482c-11.194,11.194-29.343,11.194-40.536,0l-80.482-80.482
	c-11.194-11.194-11.194-29.343,0-40.536l80.482-80.482c11.194-11.194,29.343-11.194,40.536,0l80.482,80.482
	C322.655,158.608,322.655,176.757,311.461,187.952z"/>
<linearGradient id="SVGID_5_" gradientUnits="userSpaceOnUse" x1="84.5386" y1="222.3502" x2="133.9446" y2="271.7662" gradientTransform="matrix(1.0039 0 0 -1.0039 0.1922 516.5598)">
	<stop  offset="0" style="stop-color:#FFE7A5"/>
	<stop  offset="0.966" style="stop-color:#FFBF5C"/>
</linearGradient>
<path style="fill:url(#SVGID_5_);" d="M180.203,319.21l-3.092,3.092c-17.418,17.418-45.658,17.418-63.077,0L56.091,264.36
	c-17.418-17.418-17.418-45.658,0-63.077l3.092-3.092c8.266-8.266,21.668-8.266,29.933,0l91.087,91.087
	C188.468,297.543,188.468,310.944,180.203,319.21z"/>
<linearGradient id="SVGID_6_" gradientUnits="userSpaceOnUse" x1="334.8539" y1="472.6714" x2="285.4491" y2="423.2677" gradientTransform="matrix(1.0039 0 0 -1.0039 0.1922 516.5598)">
	<stop  offset="0" style="stop-color:#FFE7A5"/>
	<stop  offset="0.966" style="stop-color:#FFBF5C"/>
</linearGradient>
<path style="fill:url(#SVGID_6_);" d="M241.218,16.156l3.092-3.092c17.418-17.418,45.658-17.418,63.077,0l57.942,57.942
	c17.418,17.418,17.418,45.658,0,63.077l-3.092,3.092c-8.266,8.266-21.668,8.266-29.933,0l-91.087-91.087
	C232.952,37.823,232.952,24.422,241.218,16.156z"/>
<linearGradient id="SVGID_7_" gradientUnits="userSpaceOnUse" x1="429.7102" y1="115.5705" x2="457.8102" y2="143.6705" gradientTransform="matrix(1.0039 0 0 -1.0039 0.1922 516.5598)">
	<stop  offset="0" style="stop-color:#654E48"/>
	<stop  offset="1" style="stop-color:#503837"/>
</linearGradient>
<path style="fill:url(#SVGID_7_);" d="M501.284,447.514l-10.743,10.743c-9.701,9.701-25.428,9.701-35.128,0l-81.546-81.546
	c-9.701-9.701-9.701-25.428,0-35.128l10.743-10.743c9.701-9.701,25.428-9.701,35.128,0l81.546,81.546
	C510.985,422.085,510.985,437.813,501.284,447.514z"/>
<linearGradient id="SVGID_8_" gradientUnits="userSpaceOnUse" x1="134.7777" y1="73.4125" x2="134.7777" y2="-60.5775" gradientTransform="matrix(1.0039 0 0 -1.0039 0.1922 516.5598)">
	<stop  offset="0" style="stop-color:#4975AD"/>
	<stop  offset="1" style="stop-color:#114F77"/>
</linearGradient>
<path style="fill:url(#SVGID_8_);" d="M239.132,456.945v-1.694c0-4.995,3.967-9.062,8.923-9.225
	c0.101-0.003,0.031-0.239,0.134-0.239l0.008-0.066l0.166,0.185v-21.248H22.639v21.251l0.069-0.033h-0.002
	c0.67-0.114,0.133,0.147,0.232,0.15c4.958,0.159,8.929,4.228,8.929,9.225v1.694c0,5.097-4.132,9.23-9.23,9.23l0,0
	c-8.956,0-16.216,7.26-16.216,16.216v20.469c0,5.048,4.092,9.139,9.139,9.139h239.878c5.048,0,9.139-4.092,9.139-9.139v-20.469
	c0-8.956-7.26-16.216-16.216-16.216l0,0C243.264,466.176,239.132,462.042,239.132,456.945z"/>
<linearGradient id="SVGID_9_" gradientUnits="userSpaceOnUse" x1="142.8562" y1="13.2625" x2="142.8562" y2="75.6525" gradientTransform="matrix(1.0039 0 0 -1.0039 0.1922 516.5598)">
	<stop  offset="0" style="stop-color:#4975AD;stop-opacity:0"/>
	<stop  offset="1" style="stop-color:#114F77"/>
</linearGradient>
<path style="fill:url(#SVGID_9_);" d="M264.578,502.861v-19.874c0-8.904-7.273-16.849-16.177-16.813
	c-5.115,0.021-9.269-4.119-9.269-9.23v-1.694c0-4.936,3.875-8.967,8.748-9.217c0.268-0.014,0.481-0.224,0.481-0.492v-20.884H22.639
	v18.838c0,0,3.377,2.816,4.569,3.706c0.033,0.025,0.069,0.072,0.13,0.106c0.265,0.151,0.665,0.429,0.665,0.429
	c0.828,0.592,1.575,1.344,2.158,2.166L92.25,512h163.188C260.487,512,264.578,507.908,264.578,502.861z"/>
<linearGradient id="SVGID_10_" gradientUnits="userSpaceOnUse" x1="134.7792" y1="115.8325" x2="134.7792" y2="23.4325" gradientTransform="matrix(1.0039 0 0 -1.0039 0.1922 516.5598)">
	<stop  offset="0" style="stop-color:#7ECCFD"/>
	<stop  offset="1" style="stop-color:#3FA9F5"/>
</linearGradient>
<path style="fill:url(#SVGID_10_);" d="M237.442,447.952H33.559c-2.124,0-4.196-0.22-6.196-0.638
	c-13.661-2.857-23.922-14.97-23.922-29.481l0,0c0-16.634,13.485-30.119,30.119-30.119h203.882c16.634,0,30.119,13.485,30.119,30.119
	l0,0C267.561,434.468,254.076,447.952,237.442,447.952z"/>
<g>
</g>
<g>
</g>
<g>
</g>
<g>
</g>
<g>
</g>
<g>
</g>
<g>
</g>
<g>
</g>
<g>
</g>
<g>
</g>
<g>
</g>
<g>
</g>
<g>
</g>
<g>
</g>
<g>
</g>
</svg>
