<?xml version="1.0" encoding="utf-8"?>
<!-- Generator: Adobe Illustrator 24.0.1, SVG Export Plug-In . SVG Version: 6.00 Build 0)  -->
<svg version="1.1" id="Layer_1" xmlns="http://www.w3.org/2000/svg" xmlns:xlink="http://www.w3.org/1999/xlink" x="0px" y="0px"
	 viewBox="0 0 490 490" style="enable-background:new 0 0 490 490;" xml:space="preserve">
<style type="text/css">
	.st0{fill:#FFFFFF;}
</style>
<g>
	<path d="M37.4,278.9c7.2,0,13-5.8,13-13v-28.1l45.3-7.6c5.2-0.9,9.4-4.8,10.6-10c3.5-15.3,9.6-30,17.9-43.3
		c2.8-4.5,2.6-10.2-0.4-14.5L97.1,125l21.3-21.3l37.3,26.7c4.3,3.1,10,3.3,14.5,0.4c13.3-8.3,28-14.4,43.3-17.9
		c5.1-1.2,9.1-5.3,10-10.6l7.6-45.3h30.1l7.6,45.3c0.9,5.2,4.8,9.4,10,10.6c15.3,3.5,30,9.6,43.3,17.9c4.5,2.8,10.2,2.6,14.5-0.4
		l37.3-26.7l21.3,21.3l-26.7,37.3c-3.1,4.3-3.3,10-0.4,14.5c8.3,13.3,14.4,28,17.9,43.3c1.2,5.1,5.3,9.1,10.6,10l45.3,7.6v28.1
		c0,7.2,5.8,13,13,13c7.2,0,13-5.8,13-13v-39.1c0-6.4-4.6-11.8-10.9-12.9l-47.8-8c-3.5-12.3-8.4-24.1-14.5-35.2l28.2-39.4
		c3.7-5.2,3.1-12.3-1.4-16.8l-36.9-36.9c-4.5-4.5-11.6-5.1-16.8-1.4l-39.4,28.2c-11.2-6.2-23-11.1-35.2-14.6l-8-47.9
		C284,35.6,278.6,31,272.2,31H220c-6.4,0-11.8,4.6-12.9,10.9l-8,47.8c-12.3,3.5-24.1,8.4-35.2,14.5l-39.4-28.2
		c-5.2-3.7-12.3-3.1-16.8,1.4l-36.9,36.9c-4.5,4.5-5.1,11.6-1.4,16.8l28.2,39.4c-6.2,11.2-11.1,23-14.6,35.2l-47.9,8
		c-6.3,1.1-10.9,6.5-10.9,12.9v39.1C24.3,273.1,30.1,278.9,37.4,278.9z"/>
	<path d="M324.4,252.8c0,7.2,5.8,13,13,13s13-5.8,13-13c0-57.6-46.7-104.4-104.4-104.4s-104.4,46.7-104.4,104.4c0,7.2,5.8,13,13,13
		s13-5.8,13-13c0-43.2,35-78.3,78.3-78.3S324.4,209.6,324.4,252.8z"/>
</g>
<path d="M480,417.7H10.6c-4.6,0-8.3-3.7-8.3-8.3V244.5c0-4.6,3.7-8.3,8.3-8.3H480c4.6,0,8.3,3.7,8.3,8.3v164.9
	C488.3,413.9,484.6,417.7,480,417.7z"/>
<g>
	<path class="st0" d="M21.9,382.9v-27.1c4.9,4.1,10.3,7.2,16,9.3c5.8,2.1,11.6,3.1,17.5,3.1c3.4,0,6.5-0.3,9-0.9
		c2.6-0.6,4.7-1.5,6.4-2.6c1.7-1.1,3-2.4,3.9-3.9c0.8-1.5,1.3-3.1,1.3-4.9c0-2.4-0.7-4.5-2-6.4s-3.2-3.6-5.6-5.2
		c-2.3-1.6-5.1-3.1-8.4-4.6c-3.2-1.5-6.7-3-10.4-4.5c-9.5-4-16.6-8.8-21.2-14.5c-4.7-5.7-7-12.6-7-20.7c0-6.3,1.3-11.8,3.8-16.3
		c2.5-4.6,6-8.3,10.4-11.2c4.4-2.9,9.5-5.1,15.2-6.5c5.8-1.4,11.9-2.1,18.3-2.1c6.3,0,11.9,0.4,16.8,1.1c4.9,0.8,9.4,1.9,13.5,3.5
		v25.4c-2-1.4-4.3-2.7-6.7-3.7c-2.4-1.1-4.9-2-7.4-2.7c-2.5-0.7-5.1-1.2-7.6-1.6c-2.5-0.3-4.9-0.5-7.2-0.5c-3.1,0-5.9,0.3-8.5,0.9
		c-2.5,0.6-4.7,1.4-6.4,2.5c-1.8,1.1-3.1,2.4-4.1,3.9c-1,1.5-1.4,3.2-1.4,5c0,2,0.5,3.9,1.6,5.5c1.1,1.6,2.6,3.1,4.6,4.6
		c2,1.4,4.4,2.9,7.2,4.2c2.8,1.4,6,2.8,9.6,4.3c4.9,2,9.2,4.2,13.1,6.5c3.9,2.3,7.2,4.9,10,7.8c2.8,2.9,4.9,6.2,6.4,9.9
		c1.5,3.7,2.2,8,2.2,12.9c0,6.8-1.3,12.5-3.9,17.1c-2.6,4.6-6.1,8.3-10.5,11.2c-4.4,2.9-9.5,4.9-15.4,6.1c-5.9,1.2-12,1.9-18.5,1.9
		c-6.7,0-13-0.6-19-1.7S26.3,385.1,21.9,382.9z"/>
	<path class="st0" d="M180.2,389.7c-17.4,0-31.6-5.7-42.6-17c-11-11.3-16.5-26.1-16.5-44.3c0-19.2,5.6-34.8,16.7-46.6
		c11.1-11.9,25.9-17.8,44.3-17.8c17.4,0,31.4,5.7,42.1,17c10.7,11.4,16.1,26.3,16.1,44.9c0,19.1-5.6,34.5-16.7,46.2
		C212.6,383.8,198.1,389.7,180.2,389.7z M181.4,287.5c-9.6,0-17.2,3.6-22.9,10.8c-5.7,7.2-8.5,16.8-8.5,28.6c0,12,2.8,21.6,8.5,28.6
		c5.7,7,13.1,10.5,22.2,10.5c9.4,0,16.9-3.4,22.5-10.2c5.5-6.8,8.3-16.3,8.3-28.4c0-12.6-2.7-22.4-8.1-29.4
		C198.1,291,190.7,287.5,181.4,287.5z"/>
	<path class="st0" d="M365.8,387.5H336l-8.7-27.1h-43.3l-8.6,27.1h-29.7l44.3-121.6h32.5L365.8,387.5z M321.1,339.4L308,298.6
		c-1-3.1-1.6-6.7-2-10.9h-0.7c-0.3,3.6-1,7.1-2.1,10.6l-13.2,41.2H321.1z"/>
	<path class="st0" d="M413.4,345.6v41.9H386V265.9h42.9c30.6,0,46,12.9,46,38.8c0,12.2-4.4,22.1-13.2,29.6
		c-8.8,7.5-20.5,11.3-35.2,11.3H413.4z M413.4,287v37.9h10.8c14.6,0,21.9-6.4,21.9-19.2c0-12.5-7.3-18.7-21.9-18.7H413.4z"/>
</g>
</svg>
