<svg xmlns="http://www.w3.org/2000/svg" width="20.334" height="16.637" viewBox="0 0 20.334 16.637"><g transform="translate(0 0)"><path d="M189.544,129.473H172.907a1.854,1.854,0,0,0-1.849,1.849v12.94a1.853,1.853,0,0,0,1.849,1.849h16.637a1.855,1.855,0,0,0,1.849-1.849v-12.94A1.855,1.855,0,0,0,189.544,129.473Zm0,14.789H172.907v-12.94h9.243v3.7h7.394Z" transform="translate(-171.058 -129.473)" fill="#bcc8d3"/><g transform="translate(2.762 7.699)"><path d="M174.063,141.776v-.906a1.756,1.756,0,0,0,.535.31,1.709,1.709,0,0,0,.583.1,1.269,1.269,0,0,0,.3-.031.722.722,0,0,0,.215-.086.383.383,0,0,0,.128-.13.321.321,0,0,0,.043-.163.357.357,0,0,0-.067-.213.766.766,0,0,0-.186-.173,1.98,1.98,0,0,0-.279-.152c-.108-.05-.224-.1-.348-.151a1.768,1.768,0,0,1-.709-.484,1.053,1.053,0,0,1-.234-.69,1.1,1.1,0,0,1,.128-.545,1.087,1.087,0,0,1,.347-.375,1.58,1.58,0,0,1,.508-.217,2.665,2.665,0,0,1,.612-.068,3.641,3.641,0,0,1,.562.038,2.253,2.253,0,0,1,.451.117v.847a1.349,1.349,0,0,0-.222-.125,1.682,1.682,0,0,0-.248-.089,1.812,1.812,0,0,0-.253-.053,1.841,1.841,0,0,0-.239-.017,1.234,1.234,0,0,0-.284.03.743.743,0,0,0-.215.083.425.425,0,0,0-.136.129.31.31,0,0,0-.047.168.32.32,0,0,0,.054.183.6.6,0,0,0,.153.152,1.652,1.652,0,0,0,.24.141c.1.046.2.094.321.143a3.782,3.782,0,0,1,.437.216,1.564,1.564,0,0,1,.333.259,1.026,1.026,0,0,1,.213.33,1.172,1.172,0,0,1,.074.433,1.154,1.154,0,0,1-.129.57,1.045,1.045,0,0,1-.349.374,1.528,1.528,0,0,1-.514.205,2.975,2.975,0,0,1-.619.062,3.416,3.416,0,0,1-.635-.056A1.91,1.91,0,0,1,174.063,141.776Z" transform="translate(-174.046 -137.803)" fill="#bcc8d3"/><path d="M179.479,142a1.888,1.888,0,0,1-1.422-.568,2.04,2.04,0,0,1-.549-1.48,2.186,2.186,0,0,1,.557-1.557,1.932,1.932,0,0,1,1.479-.594,1.845,1.845,0,0,1,1.406.568,2.1,2.1,0,0,1,.536,1.5,2.148,2.148,0,0,1-.556,1.544A1.909,1.909,0,0,1,179.479,142Zm.04-3.412a.922.922,0,0,0-.764.361,1.506,1.506,0,0,0-.283.956,1.477,1.477,0,0,0,.283.954.9.9,0,0,0,.741.351.916.916,0,0,0,.751-.341,1.458,1.458,0,0,0,.278-.947,1.586,1.586,0,0,0-.269-.983A.88.88,0,0,0,179.518,138.59Z" transform="translate(-174.308 -137.803)" fill="#bcc8d3"/><path d="M185.982,141.937h-1l-.289-.9h-1.444l-.287.9h-.991l1.478-4.061h1.084Zm-1.5-1.606-.436-1.364a1.825,1.825,0,0,1-.067-.366h-.023a1.522,1.522,0,0,1-.07.354l-.442,1.376Z" transform="translate(-174.646 -137.809)" fill="#bcc8d3"/><path d="M187.773,140.538v1.4h-.914v-4.061h1.433q1.535,0,1.535,1.294a1.242,1.242,0,0,1-.441.99,1.742,1.742,0,0,1-1.177.378Zm0-1.96v1.265h.36q.731,0,.731-.64t-.731-.626Z" transform="translate(-175.016 -137.809)" fill="#bcc8d3"/></g></g></svg>