<?xml version="1.0" encoding="utf-8"?>
<!-- Generator: Adobe Illustrator 24.0.1, SVG Export Plug-In . SVG Version: 6.00 Build 0)  -->
<svg version="1.1" id="Layer_1" xmlns="http://www.w3.org/2000/svg" xmlns:xlink="http://www.w3.org/1999/xlink" x="0px" y="0px"
	 viewBox="0 0 19 19" style="enable-background:new 0 0 19 19;" xml:space="preserve">
<style type="text/css">
	.st0{fill:#ADBCC9;}
</style>
<g transform="translate(-0.001 0.047)">
	<g transform="translate(0.001 -0.047)">
		<path class="st0" d="M17.8,8.8c-1.1-0.5-2.1-1.2-3-2c0.5-1.7,0.8-3.5,1-5.2c0.1-0.4-0.2-0.5-0.2-0.6c-0.2-0.1-0.4,0-0.5,0.2
			c-1.6,1.9-3.7,1.7-6,1.4C6.8,2.3,4.5,2.1,2.7,4.1c-0.2-0.3-0.6-0.4-1-0.3l0,0C1.1,3.9,0.8,4.5,1,5l3.5,12.5c0.1,0.4,0.6,0.7,1,0.6
			L5.8,18l0,0c0.4-0.1,0.7-0.6,0.6-1c0,0,0,0,0,0l-1.1-3.9c1.6-2,3.8-1.8,6.1-1.6s4.7,0.5,6.5-1.6l0,0c0.2-0.2,0.2-0.5,0.2-0.8
			C18,9,17.9,8.8,17.8,8.8L17.8,8.8z M5.8,17.3c0,0.1-0.1,0.1-0.2,0.1l-0.3,0.1c-0.1,0-0.3,0-0.3-0.2L1.5,4.8
			C1.5,4.6,1.6,4.4,1.8,4.3l0,0c0,0,0.1,0,0.1,0c0.2,0,0.3,0.1,0.4,0.3l0,0.1l0,0l1.8,6.4l1.7,6C5.8,17.2,5.8,17.2,5.8,17.3z
			 M17.4,9.5c-1.6,1.9-3.7,1.7-6,1.4c-2.3-0.2-4.6-0.5-6.3,1.5L3.5,6.8L3,4.7c1.6-2,3.8-1.8,6.1-1.6c2.2,0.2,4.5,0.4,6.2-1.3
			c-0.2,1.6-0.5,3.2-1,4.8c-0.1,0.2,0,0.4,0.2,0.6c0.9,0.8,1.9,1.5,3,2.1C17.5,9.3,17.5,9.4,17.4,9.5L17.4,9.5z"/>
	</g>
</g>
</svg>
