<?xml version="1.0" encoding="iso-8859-1"?>
<!-- Generator: Adobe Illustrator 19.0.0, SVG Export Plug-In . SVG Version: 6.00 Build 0)  -->
<svg version="1.1" id="Capa_1" xmlns="http://www.w3.org/2000/svg" xmlns:xlink="http://www.w3.org/1999/xlink" x="0px" y="0px"
	 viewBox="0 0 512.001 512.001" style="enable-background:new 0 0 512.001 512.001;" xml:space="preserve">
<path style="fill:#EDE9E8;" d="M400.6,0H15C6.716,0,0,6.716,0,15v482c0,8.284,6.716,15,15,15h385.6c8.284,0,15-6.716,15-15V15
	C415.6,6.716,408.884,0,400.6,0z"/>
<path style="fill:#A2D8F4;" d="M400.6,0H207.8v512h192.8c8.284,0,15-6.716,15-15V15C415.6,6.716,408.884,0,400.6,0z"/>
<path style="fill:#FFD400;" d="M497,96.399h-96.4c-8.284,0-15,6.716-15,15V448.8c0,3.978,1.581,7.794,4.394,10.606l48.201,48.199
	c2.93,2.929,6.768,4.394,10.607,4.394s7.678-1.465,10.606-4.394l48.199-48.199c2.813-2.813,4.394-6.628,4.394-10.606V111.399
	C512,103.115,505.284,96.399,497,96.399z"/>
<path style="fill:#FF9F00;" d="M497,96.399h-48.2V512c0,0,0,0,0.001,0c3.839,0,7.678-1.465,10.606-4.394l48.199-48.199
	c2.813-2.813,4.394-6.628,4.394-10.606V111.399C512,103.115,505.284,96.399,497,96.399z"/>
<g>
	<path style="fill:#006EFF;" d="M304.199,415.6H111.4c-8.284,0-15-6.716-15-15s6.716-15,15-15h192.799c8.284,0,15,6.716,15,15
		S312.483,415.6,304.199,415.6z"/>
	<path style="fill:#006EFF;" d="M304.199,319.201H111.4c-8.284,0-15-6.716-15-15s6.716-15,15-15h192.799c8.284,0,15,6.716,15,15
		S312.483,319.201,304.199,319.201z"/>
	<path style="fill:#006EFF;" d="M304.199,222.8H111.4c-8.284,0-15-6.716-15-15s6.716-15,15-15h192.799c8.284,0,15,6.716,15,15
		S312.483,222.8,304.199,222.8z"/>
	<path style="fill:#006EFF;" d="M272.066,126.399H143.533c-8.284,0-15-6.716-15-15s6.716-15,15-15h128.533c8.284,0,15,6.716,15,15
		S280.351,126.399,272.066,126.399z"/>
</g>
<path style="fill:#FF5E95;" d="M497,0h-96.4c-8.284,0-15,6.716-15,15v96.399c0,8.284,6.716,15,15,15H497c8.284,0,15-6.716,15-15V15
	C512,6.716,505.284,0,497,0z"/>
<path style="fill:#FF193D;" d="M497,0h-48.2v126.399H497c8.284,0,15-6.716,15-15V15C512,6.716,505.284,0,497,0z"/>
<g>
	<path style="fill:#0050C3;" d="M304.199,415.6c8.284,0,15-6.716,15-15s-6.716-15-15-15H207.8v30H304.199z"/>
	<path style="fill:#0050C3;" d="M319.199,304.201c0-8.284-6.716-15-15-15H207.8v30h96.399
		C312.483,319.201,319.199,312.484,319.199,304.201z"/>
	<path style="fill:#0050C3;" d="M319.199,207.8c0-8.284-6.716-15-15-15H207.8v30h96.399
		C312.483,222.8,319.199,216.084,319.199,207.8z"/>
	<path style="fill:#0050C3;" d="M287.066,111.399c0-8.284-6.716-15-15-15H207.8v30h64.267
		C280.351,126.399,287.066,119.684,287.066,111.399z"/>
</g>
<g>
</g>
<g>
</g>
<g>
</g>
<g>
</g>
<g>
</g>
<g>
</g>
<g>
</g>
<g>
</g>
<g>
</g>
<g>
</g>
<g>
</g>
<g>
</g>
<g>
</g>
<g>
</g>
<g>
</g>
</svg>
