<?xml version="1.0" encoding="utf-8"?>
<!-- Generator: Adobe Illustrator 24.0.1, SVG Export Plug-In . SVG Version: 6.00 Build 0)  -->
<svg version="1.1" id="Layer_1" xmlns="http://www.w3.org/2000/svg" xmlns:xlink="http://www.w3.org/1999/xlink" x="0px" y="0px"
	 viewBox="0 0 19.5 17.3" style="enable-background:new 0 0 19.5 17.3;" xml:space="preserve">
<style type="text/css">
	.st0{fill:#ADBCC9;}
</style>
<path class="st0" d="M15.6,0H3.9C1.7,0,0,1.7,0,3.9v9.6c0,2.1,1.7,3.9,3.9,3.9h11.8c2.1,0,3.9-1.7,3.9-3.9V3.9
	C19.5,1.7,17.8,0,15.6,0z M4.3,10.6C4.3,10.6,4.3,10.6,4.3,10.6c-0.2,0.1-0.3,0.2-0.5,0.2c-0.2,0-0.3-0.1-0.4-0.2
	c-0.1-0.1-0.2-0.2-0.2-0.4c0-0.1,0.1-0.3,0.2-0.4c0.1-0.1,0.3-0.2,0.4-0.1c0.2,0,0.3,0,0.4,0.1C4.5,10,4.5,10.4,4.3,10.6z M8.3,10.7
	H7.1L6.7,9.8c0-0.1-0.1-0.2-0.1-0.3h0c0,0.1-0.1,0.2-0.1,0.3l-0.5,0.9H4.8L5.9,9l-1-1.6H6l0.5,0.9c0.1,0.1,0.1,0.2,0.1,0.3h0
	c0-0.1,0.1-0.2,0.1-0.3l0.5-0.9l1.1,0L7.2,9L8.3,10.7z M13.9,10.7h-1V8.8c0-0.5-0.2-0.7-0.5-0.7c-0.2,0-0.3,0.1-0.4,0.2
	c-0.1,0.2-0.2,0.3-0.2,0.5v1.8h-1V8.8c0-0.5-0.2-0.7-0.5-0.7c-0.2,0-0.3,0.1-0.4,0.2C9.8,8.5,9.8,8.7,9.8,8.9v1.8h-1V7.4h1v0.5h0
	c0.2-0.4,0.6-0.6,1.1-0.6c0.4,0,0.8,0.2,0.9,0.6c0.2-0.4,0.6-0.6,1.1-0.6c0.7,0,1.1,0.4,1.1,1.3L13.9,10.7z M15.7,10.7h-1V5.8h1
	V10.7z"/>
</svg>
